<svg width="100%" height="100%" viewBox="0 0 200 63" version="1.1" xmlns="http://www.w3.org/2000/svg" xmlns:xlink="http://www.w3.org/1999/xlink" xml:space="preserve" style="fill-rule:evenodd;clip-rule:evenodd;stroke-linejoin:round;stroke-miterlimit:1.41421;"><path d="M65.314,27.69c0.48,-0.45 0.833,-1.079 1.06,-1.885c0.164,-0.592 0.267,-1.286 0.31,-2.08c0.043,-0.794 0.065,-2.069 0.065,-3.823l0,-10.836l4.499,0l0,10.776l0.011,1.447c0.008,0.3 0.012,0.735 0.012,1.304c0,1.438 -0.082,2.572 -0.246,3.402c-0.211,1.083 -0.693,2.013 -1.447,2.792c-0.754,0.778 -1.601,1.357 -2.542,1.737c-0.941,0.379 -1.775,0.553 -2.501,0.521l-0.973,-2.264c0.687,-0.277 1.271,-0.64 1.752,-1.091Z" style="fill:#0d3862;fill-rule:nonzero;"/><path d="M75.008,9.066l4.429,0l-0.035,9.923c-0.008,1.241 0.099,2.207 0.322,2.898c0.223,0.692 0.553,1.174 0.99,1.447c0.437,0.272 1.008,0.409 1.71,0.409c0.696,0 1.262,-0.143 1.699,-0.427c0.438,-0.285 0.766,-0.775 0.984,-1.47c0.219,-0.696 0.328,-1.648 0.328,-2.857l0,-9.923l4.405,0l0,10.551c0,2.482 -0.599,4.382 -1.798,5.702c-1.199,1.32 -3.052,1.98 -5.559,1.98c-2.64,0 -4.555,-0.676 -5.747,-2.027c-1.191,-1.352 -1.782,-3.26 -1.774,-5.726l0.046,-10.48Z" style="fill:#0d3862;fill-rule:nonzero;"/><path d="M93.519,22.676c0.492,0.284 1.178,0.547 2.056,0.788c0.879,0.241 1.748,0.362 2.607,0.362c0.859,0 1.484,-0.121 1.875,-0.362c0.39,-0.241 0.585,-0.63 0.585,-1.168c0,-0.371 -0.113,-0.691 -0.339,-0.96c-0.227,-0.269 -0.563,-0.527 -1.008,-0.776c-0.445,-0.249 -1.203,-0.631 -2.273,-1.144c-1.289,-0.617 -2.308,-1.368 -3.058,-2.253c-0.749,-0.885 -1.124,-1.999 -1.124,-3.343c0,-1.067 0.263,-1.972 0.791,-2.715c0.527,-0.742 1.269,-1.3 2.225,-1.671c0.957,-0.372 2.072,-0.557 3.345,-0.557c1.188,0 2.215,0.108 3.082,0.326c0.867,0.217 1.515,0.452 1.944,0.705l-0.691,3.391c-0.383,-0.301 -0.951,-0.567 -1.705,-0.801c-0.753,-0.233 -1.501,-0.349 -2.243,-0.349c-0.82,0 -1.435,0.134 -1.845,0.403c-0.41,0.268 -0.615,0.64 -0.615,1.114c0,0.356 0.103,0.672 0.31,0.948c0.207,0.277 0.525,0.544 0.955,0.801c0.43,0.257 1.035,0.567 1.816,0.93c1.117,0.506 2.025,1.008 2.724,1.506c0.699,0.498 1.236,1.077 1.611,1.737c0.375,0.659 0.562,1.448 0.562,2.365c0,1.082 -0.252,2.025 -0.756,2.827c-0.503,0.802 -1.243,1.423 -2.22,1.861c-0.976,0.439 -2.152,0.658 -3.526,0.658c-0.797,0 -1.584,-0.059 -2.361,-0.178c-0.777,-0.118 -1.455,-0.265 -2.033,-0.438c-0.578,-0.174 -0.991,-0.34 -1.241,-0.498l0.55,-3.509Z" style="fill:#0d3862;fill-rule:nonzero;"/><path d="M106.172,12.552l0,-3.486l14.024,0l0,3.486l-4.757,0l0,14.557l-4.499,0l0,-14.557l-4.768,0Z" style="fill:#0d3862;fill-rule:nonzero;"/><path d="M124.285,9.066c0.523,0 1.323,-0.031 2.401,-0.094c1.125,-0.064 1.996,-0.095 2.613,-0.095c2.249,0 3.958,0.496 5.126,1.488c1.167,0.991 1.751,2.617 1.751,4.878c0,1.422 -0.281,2.632 -0.843,3.627c-0.563,0.996 -1.391,1.751 -2.484,2.265c-1.094,0.513 -2.429,0.77 -4.007,0.77c-0.711,0 -1.316,-0.008 -1.816,-0.024l0,5.228l-4.475,0l0,-18.043l1.734,0ZM131.004,17.839c0.535,-0.553 0.802,-1.427 0.802,-2.62c0,-0.988 -0.244,-1.766 -0.732,-2.335c-0.488,-0.569 -1.217,-0.854 -2.185,-0.854c-0.734,0 -1.355,0.044 -1.863,0.131l0,6.413c0.656,0.063 1.261,0.095 1.816,0.095c0.906,0 1.627,-0.277 2.162,-0.83Z" style="fill:#0d3862;fill-rule:nonzero;"/><path d="M150.129,9.066l0,3.367l-6.853,0l0,3.817l5.284,0l0,3.284l-5.284,0l0,4.126l7.556,0l0,3.449l-11.973,0l0,-18.043l11.27,0Z" style="fill:#0d3862;fill-rule:nonzero;"/><path d="M163.321,23.743l-6.221,0l-0.937,3.366l-4.675,0l6.21,-18.161l5.084,0l6.257,18.161l-4.734,0l-0.984,-3.366ZM162.396,20.589l-1.652,-5.654l-0.586,-2.336l-0.597,2.336l-1.582,5.654l4.417,0Z" style="fill:#0d3862;fill-rule:nonzero;"/><path d="M181.024,9.019c0.554,0.095 1.152,0.225 1.792,0.391c0.438,0.111 0.699,0.174 0.785,0.19l-0.586,3.9c-0.414,-0.284 -0.904,-0.529 -1.47,-0.735c-0.566,-0.205 -1.314,-0.308 -2.243,-0.308c-0.922,0 -1.75,0.209 -2.484,0.628c-0.734,0.419 -1.314,1.036 -1.74,1.85c-0.426,0.814 -0.638,1.786 -0.638,2.916c0,1.201 0.191,2.248 0.574,3.141c0.382,0.893 0.952,1.587 1.71,2.081c0.758,0.494 1.679,0.741 2.765,0.741c0.476,0 0.976,-0.06 1.5,-0.178c0.523,-0.119 0.997,-0.269 1.423,-0.451c0.426,-0.181 0.74,-0.359 0.943,-0.533l0.012,3.699c-0.672,0.284 -1.342,0.513 -2.009,0.687c-0.668,0.174 -1.459,0.261 -2.373,0.261c-1.937,0 -3.593,-0.373 -4.967,-1.12c-1.375,-0.747 -2.42,-1.81 -3.134,-3.189c-0.715,-1.379 -1.072,-3.001 -1.072,-4.867c0,-1.975 0.398,-3.657 1.195,-5.044c0.796,-1.387 1.884,-2.434 3.263,-3.141c1.378,-0.708 2.934,-1.061 4.668,-1.061c0.836,0 1.531,0.047 2.086,0.142Z" style="fill:#0d3862;fill-rule:nonzero;"/><path d="M197.414,9.066l0,3.367l-6.854,0l0,3.817l5.284,0l0,3.284l-5.284,0l0,4.126l7.557,0l0,3.449l-11.974,0l0,-18.043l11.271,0Z" style="fill:#0d3862;fill-rule:nonzero;"/><path d="M66.14,53.469l1.886,-15.186l-1.558,-0.272l0.14,-1.198l6.139,0l-0.129,1.198l-2.202,0.272l-1.886,15.186l5.436,-0.13l1.628,-3.936l1.394,0.273l-1.124,5.18l-11.552,0l0.094,-1.043l1.734,-0.344Z" style="fill:#0d3862;fill-rule:nonzero;"/><path d="M87.668,41.188c0.414,0.079 0.805,0.178 1.172,0.296l1.418,-0.403l-1.535,11.535c-0.008,0.063 -0.012,0.146 -0.012,0.249c0,0.213 0.035,0.375 0.106,0.486c0.07,0.11 0.156,0.166 0.257,0.166c0.117,0 0.254,-0.04 0.41,-0.119c0.157,-0.079 0.364,-0.221 0.621,-0.427l0.363,0.641c-0.07,0.134 -0.236,0.32 -0.497,0.557c-0.262,0.237 -0.582,0.45 -0.961,0.64c-0.379,0.19 -0.771,0.284 -1.178,0.284c-0.499,0 -0.884,-0.128 -1.154,-0.385c-0.269,-0.257 -0.388,-0.662 -0.357,-1.215l0.082,-0.782c-0.515,0.671 -1.109,1.236 -1.781,1.695c-0.671,0.458 -1.363,0.687 -2.073,0.687c-1.258,0 -2.181,-0.458 -2.771,-1.375c-0.59,-0.916 -0.885,-2.165 -0.885,-3.746c0,-1.288 0.311,-2.628 0.932,-4.019c0.621,-1.391 1.511,-2.552 2.671,-3.485c1.16,-0.932 2.497,-1.399 4.013,-1.399c0.359,0 0.745,0.04 1.159,0.119ZM87.657,42.895c-0.383,-0.245 -0.887,-0.368 -1.512,-0.368c-1.038,0 -1.917,0.378 -2.636,1.133c-0.718,0.754 -1.255,1.687 -1.611,2.797c-0.355,1.111 -0.533,2.191 -0.533,3.243c0,2.465 0.555,3.698 1.664,3.698c0.617,0 1.256,-0.274 1.915,-0.824c0.66,-0.549 1.229,-1.167 1.705,-1.855l1.008,-7.824Z" style="fill:#0d3862;fill-rule:nonzero;"/><path d="M94.335,36.754l0.246,-0.996l2.87,-0.462l0.597,0.32l-0.972,7.362c0.422,-0.545 0.937,-1 1.547,-1.363c0.609,-0.364 1.273,-0.546 1.991,-0.546c0.875,0 1.611,0.218 2.209,0.652c0.597,0.435 1.042,1.038 1.335,1.808c0.293,0.771 0.44,1.662 0.44,2.673c0,1.296 -0.307,2.638 -0.92,4.025c-0.613,1.387 -1.488,2.545 -2.624,3.473c-1.137,0.929 -2.451,1.393 -3.943,1.393c-0.445,0 -0.927,-0.051 -1.447,-0.154c-0.519,-0.102 -0.97,-0.225 -1.353,-0.367l-1.171,0.521l2.308,-17.829l-1.113,-0.51ZM95.717,53.173c0.414,0.316 1,0.474 1.757,0.474c1.008,0 1.865,-0.385 2.572,-1.156c0.707,-0.77 1.232,-1.721 1.576,-2.851c0.343,-1.13 0.515,-2.225 0.515,-3.284c0,-1.13 -0.174,-2.009 -0.521,-2.637c-0.348,-0.629 -0.826,-0.943 -1.435,-0.943c-0.649,0 -1.279,0.228 -1.892,0.682c-0.613,0.454 -1.107,0.966 -1.482,1.535l-1.09,8.18Z" style="fill:#0d3862;fill-rule:nonzero;"/><path d="M107.866,53.197c0.57,0.189 1.172,0.284 1.804,0.284c0.664,0 1.215,-0.11 1.652,-0.332c0.438,-0.221 0.656,-0.675 0.656,-1.363c0,-0.403 -0.093,-0.773 -0.281,-1.108c-0.187,-0.336 -0.42,-0.631 -0.697,-0.884c-0.277,-0.253 -0.638,-0.545 -1.084,-0.877c-0.624,-0.466 -1.189,-1.039 -1.692,-1.719c-0.504,-0.68 -0.756,-1.438 -0.756,-2.276c0,-0.759 0.209,-1.43 0.627,-2.015c0.418,-0.585 0.974,-1.038 1.669,-1.358c0.695,-0.32 1.449,-0.48 2.261,-0.48c0.586,0 1.178,0.048 1.775,0.142c0.598,0.095 1.006,0.194 1.225,0.297l-0.446,2.003c-0.054,-0.087 -0.207,-0.203 -0.457,-0.349c-0.25,-0.147 -0.566,-0.275 -0.949,-0.386c-0.382,-0.11 -0.796,-0.166 -1.241,-0.166c-0.571,0 -1.059,0.121 -1.465,0.362c-0.406,0.241 -0.64,0.65 -0.703,1.227c-0.008,0.055 -0.012,0.138 -0.012,0.249c0,0.506 0.168,0.978 0.504,1.416c0.336,0.439 0.793,0.884 1.371,1.334c0.539,0.427 0.984,0.818 1.336,1.174c0.351,0.355 0.652,0.78 0.902,1.274c0.25,0.494 0.375,1.049 0.375,1.666c0,0.79 -0.213,1.472 -0.639,2.045c-0.426,0.573 -0.996,1.005 -1.71,1.298c-0.715,0.292 -1.494,0.438 -2.338,0.438c-0.703,0 -1.402,-0.071 -2.097,-0.213c-0.695,-0.142 -1.148,-0.304 -1.359,-0.486l0.434,-1.814c0.32,0.222 0.765,0.427 1.335,0.617Z" style="fill:#0d3862;fill-rule:nonzero;"/><path d="M44.402,46.01l-5.75,-4.255c2.233,-3.022 3.416,-6.602 3.416,-10.373c0,-8.572 -6.386,-15.983 -14.849,-17.236l1.049,-7.081c11.944,1.769 20.95,12.23 20.95,24.317c0,5.312 -1.665,10.373 -4.816,14.628" style="fill:#f9a870;fill-rule:nonzero;"/><path d="M4.876,46.01c-3.16,-4.255 -4.826,-9.316 -4.826,-14.628c0,-12.087 9.009,-22.548 20.955,-24.317l1.049,7.081c-8.462,1.253 -14.848,8.664 -14.848,17.236c0,3.771 1.18,7.351 3.416,10.373l-5.746,4.255Z" style="fill:#f9a870;fill-rule:nonzero;"/><path d="M21.001,55.704c-3.96,-0.587 -7.766,-2.166 -10.992,-4.552l4.263,-5.75c2.281,1.692 4.974,2.806 7.782,3.228l-1.053,7.074Z" style="fill:#f9a870;fill-rule:nonzero;"/><path d="M28.266,55.704l-1.046,-7.083c2.805,-0.413 5.496,-1.527 7.786,-3.219l4.256,5.75c-3.228,2.391 -7.034,3.965 -10.996,4.552" style="fill:#f9a870;fill-rule:nonzero;"/></svg>