<?xml version="1.0" encoding="UTF-8" standalone="no"?>
<!DOCTYPE svg PUBLIC "-//W3C//DTD SVG 1.1//EN" "http://www.w3.org/Graphics/SVG/1.1/DTD/svg11.dtd">
<svg width="100%" height="100%" viewBox="0 0 200 63" version="1.1" xmlns="http://www.w3.org/2000/svg" xmlns:xlink="http://www.w3.org/1999/xlink" xml:space="preserve" style="fill-rule:evenodd;clip-rule:evenodd;stroke-linejoin:round;stroke-miterlimit:1.41421;">
    <g id="Layer-1">
        <g transform="matrix(0.548706,0,0,0.55522,-62.2087,-163.61)">
            <g>
                <text x="229.961px" y="343.502px" style="font-family:'MerriweatherSans-ExtraBold', 'Merriweather Sans';font-weight:800;font-size:43.728px;fill:rgb(13,56,98);">JUSTPEACE</text>
                <text x="229.961px" y="393.476px" style="font-family:'Merriweather-Italic', 'Merriweather';font-style:italic;font-size:43.728px;fill:rgb(13,56,98);">L</text>
                <text x="255.403px" y="393.476px" style="font-family:'Merriweather-Italic', 'Merriweather';font-style:italic;font-size:43.728px;fill:rgb(13,56,98);">ab</text>
                <text x="305.878px" y="393.476px" style="font-family:'Merriweather-Italic', 'Merriweather';font-style:italic;font-size:43.728px;fill:rgb(13,56,98);">s</text>
            </g>
        </g>
        <g transform="matrix(2.34608,0,0,2.34608,-47.4561,-37.2367)">
            <path d="M39.154,35.483L36.703,33.669C37.655,32.381 38.159,30.855 38.159,29.248C38.159,25.594 35.437,22.435 31.83,21.901L32.277,18.883C37.368,19.637 41.207,24.096 41.207,29.248C41.207,31.512 40.497,33.669 39.154,35.483" style="fill:rgb(249,168,112);fill-rule:nonzero;"/>
        </g>
        <g transform="matrix(2.34608,0,0,2.34608,-47.4561,-37.2367)">
            <path d="M22.306,35.483C20.959,33.669 20.249,31.512 20.249,29.248C20.249,24.096 24.089,19.637 29.181,18.883L29.628,21.901C26.021,22.435 23.299,25.594 23.299,29.248C23.299,30.855 23.802,32.381 24.755,33.669L22.306,35.483Z" style="fill:rgb(249,168,112);fill-rule:nonzero;"/>
        </g>
        <g transform="matrix(2.34608,0,0,2.34608,-47.4561,-37.2367)">
            <path d="M29.179,39.615C27.491,39.365 25.869,38.692 24.494,37.675L26.311,35.224C27.283,35.945 28.431,36.42 29.628,36.6L29.179,39.615Z" style="fill:rgb(249,168,112);fill-rule:nonzero;"/>
        </g>
        <g transform="matrix(2.34608,0,0,2.34608,-47.4561,-37.2367)">
            <path d="M32.276,39.615L31.83,36.596C33.026,36.42 34.173,35.945 35.149,35.224L36.963,37.675C35.587,38.694 33.965,39.365 32.276,39.615" style="fill:rgb(249,168,112);fill-rule:nonzero;"/>
        </g>
    </g>
</svg>
