<?xml version="1.0" standalone="no"?>
<!DOCTYPE svg PUBLIC "-//W3C//DTD SVG 1.1//EN" "http://www.w3.org/Graphics/SVG/1.1/DTD/svg11.dtd">
<svg width="100%" height="100%" viewBox="0 0 200 63" version="1.1" xmlns="http://www.w3.org/2000/svg" xmlns:xlink="http://www.w3.org/1999/xlink" xml:space="preserve" style="fill-rule:evenodd;clip-rule:evenodd;stroke-linejoin:round;stroke-miterlimit:1.41421;">
    <g id="Layer 1">
        <g>
            <clipPath id="_clip1">
                <rect x="0" y="0" width="199.903" height="62.89"/>
            </clipPath>
            <g clip-path="url(#_clip1)">
                <path d="M43.192,25.226C43.593,23.59 43.651,21.152 43.651,18.183L43.651,5.074L48.241,5.074L48.241,18.111C48.241,20.966 48.37,23.519 47.968,25.599C47.208,29.628 43.063,31.58 40.61,31.665L39.505,29.256C40.997,28.697 42.647,27.549 43.192,25.226" style="fill:rgb(14,56,98);fill-rule:nonzero;"/>
                <path d="M52.69,5.074L57.208,5.074L57.179,17.295C57.165,22.386 58.714,23.49 61.511,23.49C64.265,23.49 65.757,22.156 65.757,17.295L65.757,5.074L70.246,5.074L70.246,17.724C70.246,23.835 67.263,27.134 61.382,27.134C54.841,27.134 52.647,23.318 52.661,17.538L52.69,5.074Z" style="fill:rgb(14,56,98);fill-rule:nonzero;"/>
                <path d="M74.625,22.185C75.844,22.859 77.91,23.562 80.248,23.562C82.671,23.562 83.446,22.802 83.446,21.338C83.446,19.804 82.571,19.173 79.215,17.509C76.633,16.232 73.793,14.296 73.793,10.724C73.793,6.421 77.307,4.843 81.409,4.843C84.163,4.843 86.271,5.604 87.046,6.106L86.3,9.649C85.239,8.974 83.719,8.257 81.539,8.257C79.114,8.257 78.268,9.147 78.268,10.496C78.268,12.058 79.387,12.733 82.041,14.138C85.468,15.946 88.036,17.509 88.036,21.052C88.036,24.982 84.995,27.133 80.534,27.133C77.68,27.133 74.797,26.344 73.979,25.842L74.625,22.185Z" style="fill:rgb(14,56,98);fill-rule:nonzero;"/>
                <path d="M95.799,8.574L89.545,8.574L89.545,5.074L106.614,5.074L106.614,8.574L100.389,8.574L100.389,26.904L95.799,26.904L95.799,8.574Z" style="fill:rgb(14,56,98);fill-rule:nonzero;"/>
                <path d="M116.687,16.836C118.91,16.836 121.003,15.918 121.003,12.317C121.003,9.549 119.483,8.043 116.642,8.158C115.881,8.187 114.994,8.215 114.304,8.358L114.304,16.721C115.006,16.807 115.968,16.836 116.687,16.836M109.744,5.074L111.121,5.074C113.53,5.074 115.482,4.844 117.56,4.844C122.551,4.844 125.536,6.982 125.536,12.375C125.536,17.366 122.453,20.292 116.8,20.292C115.568,20.292 114.806,20.277 114.304,20.264L114.304,26.904L109.744,26.904L109.744,5.074Z" style="fill:rgb(14,56,98);fill-rule:nonzero;"/>
                <path d="M128.651,5.074L141.962,5.074L141.962,8.574L133.212,8.574L133.212,13.995L139.924,13.995L139.924,17.452L133.212,17.452L133.212,23.304L142.893,23.304L142.893,26.904L128.651,26.904L128.651,5.074Z" style="fill:rgb(14,56,98);fill-rule:nonzero;"/>
                <path d="M158.229,19.001L155.862,11.514L155.245,9.262L154.614,11.514L152.276,19.001L158.229,19.001ZM152.965,4.844L157.584,4.844L165.715,26.904L160.739,26.904L159.276,22.285L151.245,22.285L149.81,26.904L144.905,26.904L152.965,4.844Z" style="fill:rgb(14,56,98);fill-rule:nonzero;"/>
                <path d="M176.464,4.844C179.634,4.844 181.025,5.433 182.401,5.691L181.743,9.707C180.968,9.291 179.706,8.459 176.751,8.459C173.208,8.459 170.468,11.17 170.468,15.76C170.468,20.292 172.95,23.606 177.095,23.606C179.075,23.606 181.398,22.787 182.159,22.229L182.173,25.987C180.911,26.489 179.318,27.134 176.665,27.134C169.939,27.134 165.765,22.658 165.765,16.047C165.765,8.818 170.511,4.844 176.464,4.844" style="fill:rgb(14,56,98);fill-rule:nonzero;"/>
                <path d="M185.661,5.074L198.972,5.074L198.972,8.574L190.222,8.574L190.222,13.995L196.934,13.995L196.934,17.452L190.222,17.452L190.222,23.304L199.903,23.304L199.903,26.904L185.661,26.904L185.661,5.074Z" style="fill:rgb(14,56,98);fill-rule:nonzero;"/>
                <path d="M28.972,25.442L25.216,22.659C26.676,20.688 27.448,18.347 27.448,15.884C27.448,10.285 23.277,5.443 17.748,4.627L18.434,0C26.236,1.155 32.121,7.989 32.121,15.884C32.121,19.355 31.032,22.659 28.972,25.442" style="fill:rgb(249,168,112);fill-rule:nonzero;"/>
                <path d="M3.151,25.442C1.088,22.659 0,19.355 0,15.884C0,7.989 5.884,1.155 13.689,0L14.373,4.627C8.844,5.443 4.672,10.285 4.672,15.884C4.672,18.347 5.444,20.688 6.905,22.659L3.151,25.442Z" style="fill:rgb(249,168,112);fill-rule:nonzero;"/>
                <path d="M13.687,31.774C11.096,31.39 8.613,30.358 6.507,28.8L9.29,25.044C10.782,26.15 12.539,26.878 14.373,27.152L13.687,31.774Z" style="fill:rgb(249,168,112);fill-rule:nonzero;"/>
                <path d="M18.431,31.774L17.747,27.147C19.581,26.878 21.339,26.15 22.836,25.044L25.616,28.8C23.505,30.363 21.022,31.39 18.431,31.774" style="fill:rgb(249,168,112);fill-rule:nonzero;"/>
                <path d="M41.206,40.814L43.673,40.814L43.673,60.737L52.695,60.737L52.695,62.645L41.206,62.645L41.206,40.814Z" style="fill:rgb(249,168,112);fill-rule:nonzero;"/>
                <path d="M60.801,61.081C62.852,61.081 64.659,60.063 65.032,59.661L65.032,54.397C63.856,54.397 61.36,54.585 59.969,55.157C58.334,55.774 57.488,56.692 57.488,58.142C57.488,59.862 58.448,61.081 60.801,61.081M58.65,53.823C60.572,53.106 63.325,52.862 65.032,52.862L65.032,50.97C65.032,48.331 63.655,47.872 61.217,47.872C59.553,47.872 57.273,48.645 56.412,49.263L55.824,47.685C56.383,47.311 59.18,46.05 61.834,46.05C65.161,46.05 67.413,46.968 67.413,51.069L67.413,62.874L66.438,62.874C65.606,62.874 65.176,62.804 65.176,61.727L65.161,61.124C64.272,61.929 62.422,62.874 60.098,62.874C57.201,62.874 55.121,61.167 55.121,58.327C55.121,56.177 56.369,54.671 58.65,53.823" style="fill:rgb(249,168,112);fill-rule:nonzero;"/>
                <path d="M78.36,61.124C81.257,61.124 83.854,58.845 83.897,54.183C83.925,50.138 82.304,47.942 79.235,47.942C77.414,47.942 75.807,48.876 75.004,49.606L75.004,60.421C75.549,60.837 76.854,61.124 78.36,61.124M72.609,38.82L75.004,38.82L75.004,45.634L74.903,48.073C75.75,47.255 77.284,46.063 79.881,46.063C83.452,46.063 86.335,48.632 86.335,53.866C86.335,59.218 83.007,62.89 78.102,62.89C75.707,62.89 73.168,62.114 72.609,61.728L72.609,38.82Z" style="fill:rgb(249,168,112);fill-rule:nonzero;"/>
                <path d="M89.953,59.892C90.57,60.322 92.678,61.068 94.658,61.097C96.752,61.097 98.244,60.249 98.244,58.558C98.244,56.837 96.293,56.076 94.342,55.287C91.832,54.269 89.681,52.863 89.709,50.195C89.766,47.384 92.349,46.079 95.418,46.064C97.326,46.05 99.047,46.581 99.62,46.912L99.219,48.732C98.659,48.302 97.11,47.843 95.504,47.843C93.166,47.843 91.947,48.775 91.932,50.066C91.904,51.788 93.381,52.605 95.504,53.423C97.655,54.269 100.481,55.56 100.481,58.386C100.481,61.253 98.258,62.874 94.772,62.874C92.678,62.874 90.527,62.316 89.58,61.699L89.953,59.892Z" style="fill:rgb(249,168,112);fill-rule:nonzero;"/>
            </g>
        </g>
    </g>
</svg>
