<svg enable-background="new 0 0 64 64" fill="#f56c0e" viewBox="0 0 100 100" xmlns="http://www.w3.org/2000/svg"><path d="m45.38 6h-8.38v-5h-10v5h-18v57h46v-48.449zm-14.38 11h2v1.5l-2 1.5zm-5-2v-.912c0-1.703 1.385-3.088 3.088-3.088h5.824c1.703 0 3.088 1.385 3.088 3.088v.912zm3-12h6v6h-.088-5.824-.088zm-18 58v-53h16v1.46c-1.764.8-3 2.569-3 4.628v2.912h5v7l6-4.5v-2.5h5v-2.912c0-2.06-1.236-3.829-3-4.628v-1.46h7l.001 8h8.999v45zm35-51.773 5.37 4.773h-5.369z"/><path d="m13 48h38v2h-38z"/><path d="m13 52h38v2h-38z"/><path d="m42 56h9v2h-9z"/><path d="m17 40c1.654 0 3-1.346 3-3 0-.421-.089-.822-.247-1.186l4.863-4.168c.416.218.882.354 1.384.354.548 0 1.055-.158 1.497-.416l5.548 3.963c-.022.149-.045.298-.045.453 0 1.654 1.346 3 3 3s3-1.346 3-3c0-.492-.13-.95-.342-1.361l6.132-6.899c.371.165.779.26 1.21.26 1.654 0 3-1.346 3-3s-1.346-3-3-3-3 1.346-3 3c0 .492.131.95.342 1.361l-6.132 6.899c-.371-.165-.779-.26-1.21-.26-.768 0-1.463.299-1.994.775l-5.208-3.72c.125-.329.202-.682.202-1.055 0-1.654-1.346-3-3-3s-3 1.346-3 3c0 .421.089.822.247 1.186l-4.863 4.168c-.416-.219-.882-.354-1.384-.354-1.654 0-3 1.346-3 3s1.346 3 3 3zm29-16c.552 0 1 .449 1 1s-.448 1-1 1-1-.449-1-1 .448-1 1-1zm-10 11c.552 0 1 .449 1 1s-.448 1-1 1-1-.449-1-1 .448-1 1-1zm-10-7c.552 0 1 .449 1 1s-.448 1-1 1-1-.449-1-1 .448-1 1-1zm-9 8c.552 0 1 .449 1 1s-.448 1-1 1-1-.449-1-1 .448-1 1-1z"/><path d="m13 44h38v2h-38z"/></svg>