<svg enable-background="new 0 0 100 100" fill="#f56c0e" viewBox="0 0 100 100" xmlns="http://www.w3.org/2000/svg"><path d="m88.9 22.4c0-5.7-4.7-10.4-10.4-10.4s-10.4 4.7-10.4 10.4 4.7 10.4 10.4 10.4c5.8-.1 10.4-4.7 10.4-10.4zm-14.7 0c0-2.4 2-4.4 4.4-4.4s4.4 2 4.4 4.4-2 4.4-4.4 4.4-4.4-2-4.4-4.4z"/><path d="m50 12c-5.7 0-10.4 4.7-10.4 10.4s4.7 10.4 10.4 10.4c1.9 0 3.7-.5 5.3-1.5l14 14c-.7 1.4-1.1 3-1.1 4.7 0 4.7 3.1 8.6 7.4 9.9v7.8c-4.3 1.3-7.4 5.2-7.4 9.9 0 5.7 4.7 10.4 10.4 10.4s10.4-4.7 10.4-10.4c0-4.7-3.1-8.6-7.4-9.9v-7.8c4.3-1.3 7.4-5.2 7.4-9.9 0-5.7-4.7-10.4-10.4-10.4-1.9 0-3.6.5-5.1 1.4l-14.2-14.1c.7-1.4 1-2.9 1-4.5.1-5.7-4.6-10.4-10.3-10.4zm-4.4 10.4c0-2.4 2-4.4 4.4-4.4s4.4 2 4.4 4.4-2 4.4-4.4 4.4-4.4-2-4.4-4.4zm37.3 55.2c0 2.4-2 4.4-4.4 4.4s-4.4-2-4.4-4.4 2-4.4 4.4-4.4 4.4 2 4.4 4.4zm-4.3-32c2.4 0 4.4 2 4.4 4.4s-2 4.4-4.4 4.4-4.4-2-4.4-4.4 1.9-4.4 4.4-4.4z"/><path d="m11.1 50c0 5.7 4.7 10.4 10.4 10.4 1 0 1.9-.1 2.7-.4l15.6 15.6c-.1.7-.2 1.3-.2 2 0 5.7 4.7 10.4 10.4 10.4s10.4-4.7 10.4-10.4c0-4.7-3.1-8.6-7.4-9.9v-7.8c4.3-1.3 7.4-5.2 7.4-9.9 0-5.7-4.7-10.4-10.4-10.4s-10.4 4.7-10.4 10.4c0 4.7 3.1 8.6 7.4 9.9v7.8c-1.6.5-3 1.3-4.2 2.4l-13.4-13.4c1.5-1.8 2.4-4.1 2.4-6.7 0-4.7-3.1-8.6-7.4-9.9v-7.8c4.3-1.3 7.4-5.2 7.4-9.9 0-5.7-4.7-10.4-10.4-10.4s-10.4 4.7-10.4 10.4c0 4.7 3.1 8.6 7.4 9.9v7.8c-4.2 1.3-7.3 5.2-7.3 9.9zm34.5 0c0-2.4 2-4.4 4.4-4.4s4.4 2 4.4 4.4-2 4.4-4.4 4.4-4.4-2-4.4-4.4zm4.4 23.3c2.4 0 4.4 2 4.4 4.4s-2 4.3-4.4 4.3-4.4-2-4.4-4.4 2-4.3 4.4-4.3zm-24.2-23.3c0 2.4-2 4.4-4.4 4.4s-4.4-2-4.4-4.4 2-4.4 4.4-4.4 4.4 2 4.4 4.4zm-8.7-27.6c0-2.4 2-4.4 4.4-4.4s4.4 2 4.4 4.4-2 4.4-4.4 4.4-4.4-2-4.4-4.4z"/><path d="m21.4 88c5.7 0 10.4-4.7 10.4-10.4s-4.7-10.4-10.4-10.4-10.4 4.7-10.4 10.4c.1 5.7 4.7 10.4 10.4 10.4zm0-14.7c2.4 0 4.4 2 4.4 4.4s-2 4.4-4.4 4.4-4.4-2-4.4-4.4 2-4.4 4.4-4.4z"/></svg>