<svg xmlns="http://www.w3.org/2000/svg" xmlns:xlink="http://www.w3.org/1999/xlink" version="1.1" x="0px" y="0px" viewBox="0 0 100 100" style="enable-background:new 0 0 64 64;" xml:space="preserve" fill="#f56c0e"><g><path d="M45.38,6H37V1H27v5H9v57h46V14.551L45.38,6z M31,17h2v1.5L31,20V17z M26,15v-0.912C26,12.385,27.385,11,29.088,11h5.824   C36.615,11,38,12.385,38,14.088V15H26z M29,3h6v6h-0.088h-5.824H29V3z M11,61V8h16v1.46c-1.764,0.8-3,2.569-3,4.628V17h5v7l6-4.5   V17h5v-2.912c0-2.06-1.236-3.829-3-4.628V8h7l0.001,8H53v45H11z M46,9.227L51.37,14h-5.369L46,9.227z"/><rect x="13" y="48" width="38" height="2"/><rect x="13" y="52" width="38" height="2"/><rect x="42" y="56" width="9" height="2"/><path d="M17,40c1.654,0,3-1.346,3-3c0-0.421-0.089-0.822-0.247-1.186l4.863-4.168C25.032,31.864,25.498,32,26,32   c0.548,0,1.055-0.158,1.497-0.416l5.548,3.963C33.023,35.696,33,35.845,33,36c0,1.654,1.346,3,3,3s3-1.346,3-3   c0-0.492-0.13-0.95-0.342-1.361l6.132-6.899C45.161,27.905,45.569,28,46,28c1.654,0,3-1.346,3-3s-1.346-3-3-3s-3,1.346-3,3   c0,0.492,0.131,0.95,0.342,1.361l-6.132,6.899C36.839,33.095,36.431,33,36,33c-0.768,0-1.463,0.299-1.994,0.775l-5.208-3.72   C28.923,29.726,29,29.373,29,29c0-1.654-1.346-3-3-3s-3,1.346-3,3c0,0.421,0.089,0.822,0.247,1.186l-4.863,4.168   C17.968,34.135,17.502,34,17,34c-1.654,0-3,1.346-3,3S15.346,40,17,40z M46,24c0.552,0,1,0.449,1,1s-0.448,1-1,1s-1-0.449-1-1   S45.448,24,46,24z M36,35c0.552,0,1,0.449,1,1s-0.448,1-1,1s-1-0.449-1-1S35.448,35,36,35z M26,28c0.552,0,1,0.449,1,1   s-0.448,1-1,1s-1-0.449-1-1S25.448,28,26,28z M17,36c0.552,0,1,0.449,1,1s-0.448,1-1,1s-1-0.449-1-1S16.448,36,17,36z"/><rect x="13" y="44" width="38" height="2"/></g>
<!--
<text x="0" y="79" fill="#000000" font-size="5px" font-weight="bold" font-family="'Helvetica Neue', Helvetica, Arial-Unicode, Arial, Sans-serif">Created by Eucalyp</text><text x="0" y="84" fill="#000000" font-size="5px" font-weight="bold" font-family="'Helvetica Neue', Helvetica, Arial-Unicode, Arial, Sans-serif">from the Noun Project</text>
-->
</svg>