<svg enable-background="new 0 0 100 100" fill="#f56c0e" viewBox="0 0 100 100" xmlns="http://www.w3.org/2000/svg"><path d="m50.862 35.481c.22-1.356.648-3.249 1.486-5.486 9.98 4.37 16.766-4.894 19.438-10.049 2.729-5.265 1.95-15.405 1.95-15.405s-.975 5.46-13.454 9.556c-10.35 3.395-9.437 11.884-8.822 14.685 1.556-2.15 3.435-2.961 3.435-2.961-2.307 1.812-3.141 3.515-3.239 3.729.001.002.002.005.002.006-.758 1.304-1.551 2.874-2.196 4.616-2.281-6.048-5.093-9.017-5.093-9.017l-3.857 1.995c3.704 1.587 5.997 5.768 7.127 8.411-15.316 1.21-27.409 14.049-27.409 29.669 0 16.415 13.355 29.77 29.77 29.77s29.77-13.355 29.77-29.77c0-16.127-12.891-29.29-28.908-29.749zm22.054 17.327.221.424c1.643 3.155 2.603 6.573 2.854 10.159l.046.658h-8.077l-.008-.606c-.041-2.942-.426-5.876-1.145-8.72l-.162-.641.652-.115c1.808-.317 3.591-.68 5.155-1.049zm-10.124-10.286c3.223 1.823 5.984 4.277 8.206 7.296l.563.765-.929.199c-1.344.288-2.767.559-4.229.804l-.507.085-.173-.484c-.945-2.646-2.21-5.274-3.758-7.812l-1.232-2.019zm-11.345-3.324.664.053c1.426.116 2.881.361 4.325.73l.203.052.129.166c2.809 3.601 4.969 7.339 6.422 11.111l.281.729-.775.101c-3.535.461-7.107.742-10.619.837l-.631.017v-13.796zm0 16.299.599-.015c3.871-.095 7.793-.416 11.657-.952l.537-.074.141.523c.746 2.766 1.155 5.607 1.218 8.441l.014.628h-14.166zm0 11.008h14.099l-.054.664c-.233 2.857-.797 5.731-1.676 8.543l-.154.494-.513-.068c-3.679-.49-7.414-.784-11.103-.875l-.599-.015zm-22.444-16.687c2.451-3.33 5.693-6.064 9.376-7.907l1.968-.985-1.174 1.862c-1.727 2.74-3.13 5.63-4.171 8.591l-.172.488-.51-.086c-1.635-.276-3.304-.613-4.964-1.002l-.906-.212zm-4.994 13.572c.253-3.604 1.22-7.035 2.874-10.197l.224-.43.47.118c1.868.471 3.79.878 5.876 1.247l.648.114-.158.639c-.691 2.782-1.061 5.663-1.101 8.561l-.008.606h-8.869zm3.227 14.562-.226-.421c-1.716-3.194-2.724-6.682-2.997-10.367l-.049-.659h8.938l.045.566c.226 2.847.773 5.756 1.625 8.645l.196.665-.683.115c-2.081.351-4.229.802-6.386 1.34zm12.241 11.126c-4.042-1.79-7.6-4.623-10.291-8.192l-.569-.755.921-.214c1.796-.416 3.663-.779 5.55-1.079l.493-.079.178.466c1.49 3.896 3.263 7.024 4.487 8.962l1.079 1.708zm9.513 2.194-.653-.041c-1.239-.079-2.917-.333-2.917-.333-1.019-1.299-4.809-6.109-7.073-11.735l-.301-.748.801-.091c3.089-.353 6.293-.549 9.522-.583l.621-.007zm0-16.038-.607.007c-3.589.043-7.172.286-10.651.724l-.513.065-.151-.495c-.85-2.78-1.399-5.594-1.633-8.365l-.056-.666h13.611zm0-11.186h-13.686l.011-.625c.05-2.785.428-5.567 1.123-8.266l.136-.528.54.072c3.631.484 7.422.752 11.268.798l.607.007v8.542zm0-11.038-.621-.007c-3.466-.037-6.927-.265-10.284-.678l-.772-.095.271-.729c1.474-3.956 3.708-7.846 6.64-11.561l.137-.175.217-.046c1.145-.243 2.374-.404 3.758-.491l.653-.041v13.823zm3.121 38.198-.664.053v-13.51l.631.017c3.266.088 6.604.34 9.922.75l.8.099-.308.745c-2.274 5.501-5.79 10.003-6.847 11.32-.001 0-2.322.428-3.534.526zm18.699-10.316c-2.412 3.197-5.568 5.835-9.129 7.629l-1.931.972 1.131-1.843c1.601-2.607 2.973-5.379 4.079-8.237l.179-.463.49.079c1.647.263 3.267.563 4.818.892l.944.201zm5.176-13.728c-.271 3.666-1.272 7.14-2.976 10.326l-.223.416-.46-.107c-1.777-.416-3.686-.797-5.673-1.132l-.686-.116.199-.666c.881-2.948 1.445-5.913 1.676-8.814l.045-.566h8.146z"/></svg>