<svg xmlns="http://www.w3.org/2000/svg" xmlns:xlink="http://www.w3.org/1999/xlink" version="1.1" x="0px" y="0px" viewBox="0 0 100 125" enable-background="new 0 0 100 100" xml:space="preserve" fill="#f56c0e"><path d="M50.862,35.481c0.22-1.356,0.648-3.249,1.486-5.486c9.98,4.37,16.766-4.894,19.438-10.049  c2.729-5.265,1.95-15.405,1.95-15.405s-0.975,5.46-13.454,9.556c-10.35,3.395-9.437,11.884-8.822,14.685  c1.556-2.15,3.435-2.961,3.435-2.961c-2.307,1.812-3.141,3.515-3.239,3.729c0.001,0.002,0.002,0.005,0.002,0.006  c-0.758,1.304-1.551,2.874-2.196,4.616c-2.281-6.048-5.093-9.017-5.093-9.017l-3.857,1.995c3.704,1.587,5.997,5.768,7.127,8.411  C32.323,36.771,20.23,49.61,20.23,65.23C20.23,81.645,33.585,95,50,95c16.415,0,29.77-13.355,29.77-29.77  C79.77,49.103,66.879,35.94,50.862,35.481z M72.916,52.808l0.221,0.424c1.643,3.155,2.603,6.573,2.854,10.159l0.046,0.658H67.96  l-0.008-0.606c-0.041-2.942-0.426-5.876-1.145-8.72l-0.162-0.641l0.652-0.115c1.808-0.317,3.591-0.68,5.155-1.049L72.916,52.808z   M62.792,42.522c3.223,1.823,5.984,4.277,8.206,7.296l0.563,0.765l-0.929,0.199c-1.344,0.288-2.767,0.559-4.229,0.804l-0.507,0.085  l-0.173-0.484c-0.945-2.646-2.21-5.274-3.758-7.812l-1.232-2.019L62.792,42.522z M51.447,39.198l0.664,0.053  c1.426,0.116,2.881,0.361,4.325,0.73l0.203,0.052l0.129,0.166c2.809,3.601,4.969,7.339,6.422,11.111l0.281,0.729l-0.775,0.101  c-3.535,0.461-7.107,0.742-10.619,0.837l-0.631,0.017V39.198z M51.447,55.497l0.599-0.015c3.871-0.095,7.793-0.416,11.657-0.952  l0.537-0.074l0.141,0.523c0.746,2.766,1.155,5.607,1.218,8.441l0.014,0.628H51.447V55.497z M51.447,66.505h14.099l-0.054,0.664  c-0.233,2.857-0.797,5.731-1.676,8.543l-0.154,0.494l-0.513-0.068c-3.679-0.49-7.414-0.784-11.103-0.875l-0.599-0.015V66.505z   M29.003,49.818c2.451-3.33,5.693-6.064,9.376-7.907l1.968-0.985l-1.174,1.862c-1.727,2.74-3.13,5.63-4.171,8.591l-0.172,0.488  l-0.51-0.086c-1.635-0.276-3.304-0.613-4.964-1.002l-0.906-0.212L29.003,49.818z M24.009,63.39c0.253-3.604,1.22-7.035,2.874-10.197  l0.224-0.43l0.47,0.118c1.868,0.471,3.79,0.878,5.876,1.247l0.648,0.114l-0.158,0.639c-0.691,2.782-1.061,5.663-1.101,8.561  l-0.008,0.606h-8.869L24.009,63.39z M27.236,77.952l-0.226-0.421c-1.716-3.194-2.724-6.682-2.997-10.367l-0.049-0.659h8.938  l0.045,0.566c0.226,2.847,0.773,5.756,1.625,8.645l0.196,0.665l-0.683,0.115c-2.081,0.351-4.229,0.802-6.386,1.34L27.236,77.952z   M39.477,89.078c-4.042-1.79-7.6-4.623-10.291-8.192l-0.569-0.755l0.921-0.214c1.796-0.416,3.663-0.779,5.55-1.079l0.493-0.079  l0.178,0.466c1.49,3.896,3.263,7.024,4.487,8.962l1.079,1.708L39.477,89.078z M48.99,91.272l-0.653-0.041  c-1.239-0.079-2.917-0.333-2.917-0.333c-1.019-1.299-4.809-6.109-7.073-11.735l-0.301-0.748l0.801-0.091  c3.089-0.353,6.293-0.549,9.522-0.583l0.621-0.007V91.272z M48.99,75.234l-0.607,0.007c-3.589,0.043-7.172,0.286-10.651,0.724  l-0.513,0.065l-0.151-0.495c-0.85-2.78-1.399-5.594-1.633-8.365l-0.056-0.666H48.99V75.234z M48.99,64.048H35.304l0.011-0.625  c0.05-2.785,0.428-5.567,1.123-8.266l0.136-0.528l0.54,0.072c3.631,0.484,7.422,0.752,11.268,0.798l0.607,0.007V64.048z   M48.99,53.01l-0.621-0.007c-3.466-0.037-6.927-0.265-10.284-0.678l-0.772-0.095l0.271-0.729c1.474-3.956,3.708-7.846,6.64-11.561  l0.137-0.175l0.217-0.046c1.145-0.243,2.374-0.404,3.758-0.491l0.653-0.041V53.01z M52.111,91.208l-0.664,0.053v-13.51l0.631,0.017  c3.266,0.088,6.604,0.34,9.922,0.75l0.8,0.099l-0.308,0.745c-2.274,5.501-5.79,10.003-6.847,11.32  C55.644,90.682,53.323,91.11,52.111,91.208z M70.81,80.892c-2.412,3.197-5.568,5.835-9.129,7.629l-1.931,0.972l1.131-1.843  c1.601-2.607,2.973-5.379,4.079-8.237l0.179-0.463l0.49,0.079c1.647,0.263,3.267,0.563,4.818,0.892l0.944,0.201L70.81,80.892z   M75.986,67.164c-0.271,3.666-1.272,7.14-2.976,10.326l-0.223,0.416l-0.46-0.107c-1.777-0.416-3.686-0.797-5.673-1.132l-0.686-0.116  l0.199-0.666c0.881-2.948,1.445-5.913,1.676-8.814l0.045-0.566h8.146L75.986,67.164z"/>
<!--<text x="0" y="115" fill="#000000" font-size="5px" font-weight="bold" font-family="'Helvetica Neue', Helvetica, Arial-Unicode, Arial, Sans-serif">Created by Ale Estrada</text><text x="0" y="120" fill="#000000" font-size="5px" font-weight="bold" font-family="'Helvetica Neue', Helvetica, Arial-Unicode, Arial, Sans-serif">from the Noun Project</text>
-->
</svg>